<svg width="29" height="30" viewBox="0 0 29 30" fill="none" xmlns="http://www.w3.org/2000/svg">
<path d="M24.3358 5.82167C22.5142 4.9725 20.542 4.35617 18.4875 4.00006C18.4695 3.99949 18.4516 4.00287 18.435 4.00997C18.4184 4.01707 18.4036 4.02771 18.3916 4.04115C18.1451 4.49313 17.8575 5.08207 17.6657 5.53405C15.4866 5.20534 13.2706 5.20534 11.0915 5.53405C10.8998 5.06838 10.6121 4.49313 10.3519 4.04115C10.3382 4.01376 10.2971 4.00006 10.256 4.00006C8.20158 4.35617 6.243 4.9725 4.4077 5.82167C4.394 5.82167 4.38031 5.83537 4.36661 5.84907C0.641212 11.4235 -0.386011 16.8472 0.120752 22.2162C0.120752 22.2436 0.134449 22.2709 0.161841 22.2846C2.62718 24.0926 4.99664 25.1883 7.33871 25.9142C7.3798 25.9279 7.42089 25.9142 7.43458 25.8868C7.98244 25.1335 8.4755 24.3391 8.90009 23.5036C8.92748 23.4488 8.90009 23.394 8.8453 23.3803C8.06461 23.079 7.32501 22.7229 6.59911 22.312C6.54432 22.2846 6.54432 22.2025 6.58541 22.1614C6.73607 22.0518 6.88673 21.9285 7.03739 21.819C7.06478 21.7916 7.10587 21.7916 7.13326 21.8053C11.8448 23.9556 16.9261 23.9556 21.5829 21.8053C21.6103 21.7916 21.6514 21.7916 21.6787 21.819C21.8294 21.9422 21.9801 22.0518 22.1307 22.1751C22.1855 22.2162 22.1855 22.2983 22.117 22.3257C21.4048 22.7503 20.6515 23.0927 19.8708 23.394C19.8161 23.4077 19.8024 23.4762 19.8161 23.5173C20.2543 24.3528 20.7474 25.1472 21.2816 25.9005C21.3226 25.9142 21.3637 25.9279 21.4048 25.9142C23.7606 25.1883 26.13 24.0926 28.5954 22.2846C28.6228 22.2709 28.6365 22.2436 28.6365 22.2162C29.2391 16.0117 27.6366 10.6291 24.3906 5.84907C24.3769 5.83537 24.3632 5.82167 24.3358 5.82167ZM9.6123 18.9427C8.20158 18.9427 7.02369 17.6416 7.02369 16.0391C7.02369 14.4367 8.17419 13.1355 9.6123 13.1355C11.0641 13.1355 12.2146 14.4503 12.2009 16.0391C12.2009 17.6416 11.0504 18.9427 9.6123 18.9427ZM19.1586 18.9427C17.7479 18.9427 16.57 17.6416 16.57 16.0391C16.57 14.4367 17.7205 13.1355 19.1586 13.1355C20.6104 13.1355 21.7609 14.4503 21.7472 16.0391C21.7472 17.6416 20.6104 18.9427 19.1586 18.9427Z" fill="white"/>
</svg>
