<svg width="33" height="33" viewBox="0 0 33 33" fill="none" xmlns="http://www.w3.org/2000/svg">
<g filter="url(#filter0_d_0_69)">
<path d="M13.0907 16.9553C13.7286 17.5621 13.7286 18.5579 13.0907 19.1647C12.4839 19.7715 11.4881 19.7715 10.8813 19.1647C9.42403 17.7052 8.60551 15.727 8.60551 13.6646C8.60551 11.6021 9.42403 9.62392 10.8813 8.16444L16.3892 2.65654C17.8487 1.19925 19.8269 0.380737 21.8893 0.380737C23.9518 0.380737 25.93 1.19925 27.3895 2.65654C28.8467 4.11602 29.6653 6.09419 29.6653 8.15666C29.6653 10.2191 28.8467 12.1973 27.3895 13.6568L25.0712 15.9751C25.0867 14.6992 24.8844 13.4234 24.4488 12.2098L25.1801 11.463C25.6163 11.0315 25.9625 10.5178 26.1988 9.9516C26.4352 9.38541 26.5569 8.77797 26.5569 8.16444C26.5569 7.55091 26.4352 6.94347 26.1988 6.37728C25.9625 5.81109 25.6163 5.2974 25.1801 4.86593C24.7486 4.42975 24.2349 4.08348 23.6687 3.84715C23.1025 3.61083 22.4951 3.48914 21.8816 3.48914C21.268 3.48914 20.6606 3.61083 20.0944 3.84715C19.5282 4.08348 19.0145 4.42975 18.583 4.86593L13.0907 10.3583C12.6545 10.7897 12.3083 11.3034 12.0719 11.8696C11.8356 12.4358 11.7139 13.0433 11.7139 13.6568C11.7139 14.2703 11.8356 14.8777 12.0719 15.4439C12.3083 16.0101 12.6545 16.5238 13.0907 16.9553ZM17.4783 10.3583C18.0852 9.75146 19.0809 9.75146 19.6877 10.3583C21.145 11.8177 21.9635 13.7959 21.9635 15.8584C21.9635 17.9209 21.145 19.899 19.6877 21.3585L14.1798 26.8664C12.7204 28.3237 10.7422 29.1422 8.67972 29.1422C6.61725 29.1422 4.63908 28.3237 3.1796 26.8664C1.72231 25.4069 0.903793 23.4288 0.903793 21.3663C0.903793 19.3038 1.72231 17.3256 3.1796 15.8662L5.4979 13.5479C5.48234 14.8237 5.6846 16.0995 6.12026 17.3287L5.38898 18.06C4.9528 18.4915 4.60653 19.0052 4.37021 19.5713C4.13388 20.1375 4.0122 20.745 4.0122 21.3585C4.0122 21.972 4.13388 22.5795 4.37021 23.1457C4.60653 23.7118 4.9528 24.2255 5.38898 24.657C5.82045 25.0932 6.33415 25.4395 6.90034 25.6758C7.46653 25.9121 8.07397 26.0338 8.6875 26.0338C9.30103 26.0338 9.90847 25.9121 10.4747 25.6758C11.0408 25.4395 11.5545 25.0932 11.986 24.657L17.4783 19.1647C17.9145 18.7332 18.2608 18.2195 18.4971 17.6533C18.7335 17.0871 18.8551 16.4797 18.8551 15.8662C18.8551 15.2526 18.7335 14.6452 18.4971 14.079C18.2608 13.5128 17.9145 12.9991 17.4783 12.5676C17.3272 12.426 17.2068 12.255 17.1244 12.0649C17.0421 11.8749 16.9996 11.67 16.9996 11.463C16.9996 11.2559 17.0421 11.051 17.1244 10.861C17.2068 10.671 17.3272 10.4999 17.4783 10.3583Z" fill="white"/>
</g>
<defs>
<filter id="filter0_d_0_69" x="0.903793" y="0.380737" width="31.7615" height="31.7615" filterUnits="userSpaceOnUse" color-interpolation-filters="sRGB">
<feFlood flood-opacity="0" result="BackgroundImageFix"/>
<feColorMatrix in="SourceAlpha" type="matrix" values="0 0 0 0 0 0 0 0 0 0 0 0 0 0 0 0 0 0 127 0" result="hardAlpha"/>
<feOffset dx="2" dy="2"/>
<feGaussianBlur stdDeviation="0.5"/>
<feComposite in2="hardAlpha" operator="out"/>
<feColorMatrix type="matrix" values="0 0 0 0 0 0 0 0 0 0 0 0 0 0 0 0 0 0 0.25 0"/>
<feBlend mode="normal" in2="BackgroundImageFix" result="effect1_dropShadow_0_69"/>
<feBlend mode="normal" in="SourceGraphic" in2="effect1_dropShadow_0_69" result="shape"/>
</filter>
</defs>
</svg>
