<svg width="37" height="30" viewBox="0 0 37 30" fill="none" xmlns="http://www.w3.org/2000/svg">
<g filter="url(#filter0_d_109_186)">
<path d="M31.0749 9.61682C31.0749 10.4922 30.7709 11.2338 30.1631 11.8417C29.5552 12.4495 28.8136 12.7535 27.9382 12.7535C27.1115 12.7535 26.3942 12.4495 25.7863 11.8417C25.1784 11.2338 24.8745 10.4922 24.8745 9.61682C24.8745 8.7901 25.1784 8.0728 25.7863 7.46492C26.3942 6.85704 27.1115 6.5531 27.9382 6.5531C28.8136 6.5531 29.5552 6.85704 30.1631 7.46492C30.7709 8.0728 31.0749 8.7901 31.0749 9.61682ZM29.8348 14.8689L26.0416 18.0785C26.0903 18.2731 26.1146 18.5405 26.1146 18.8809C26.1146 20.2426 25.6283 21.4097 24.6557 22.3823C23.6831 23.3549 22.5159 23.8412 21.1543 23.8412C19.9871 23.8412 18.9537 23.4765 18.0541 22.7471C17.1544 22.0176 16.583 21.0936 16.3398 19.9751L7.00279 16.8385C6.17607 17.422 5.30072 17.7138 4.37675 17.7138C3.16098 17.7138 2.12758 17.2883 1.27655 16.4373C0.425517 15.5862 0 14.5528 0 13.3371C0 12.1213 0.425517 11.0879 1.27655 10.2369C2.12758 9.38583 3.16098 8.96031 4.37675 8.96031C5.39799 8.96031 6.29765 9.28857 7.07574 9.94508C7.85383 10.6016 8.36445 11.4162 8.6076 12.3888L17.5799 15.3795C18.5525 14.4556 19.6954 13.9693 21.0084 13.9206L22.3943 9.83566V9.61682C22.3943 8.06065 22.9414 6.73547 24.0356 5.64128C25.1298 4.54709 26.455 4 28.0112 4C29.5187 4 30.8196 4.54709 31.9138 5.64128C33.008 6.73547 33.555 8.06065 33.555 9.61682C33.555 10.8326 33.2146 11.9146 32.5338 12.8629C31.853 13.8112 30.9533 14.4799 29.8348 14.8689ZM7.07574 11.8781C6.49217 10.8083 5.61682 10.2733 4.44969 10.2733C3.57434 10.2733 2.84488 10.5773 2.26132 11.1852C1.67775 11.793 1.38597 12.5103 1.38597 13.3371C1.38597 14.1638 1.67775 14.8811 2.26132 15.489C2.84488 16.0968 3.57434 16.4008 4.44969 16.4008C4.64421 16.4008 4.936 16.3521 5.32504 16.2549L3.86612 15.7443C3.28256 15.4525 2.89351 14.9905 2.69899 14.3583C2.50447 13.7261 2.5531 13.1182 2.84488 12.5347C3.1853 11.9511 3.6716 11.562 4.3038 11.3675C4.936 11.173 5.54388 11.2216 6.12744 11.5134L7.07574 11.8781ZM23.6344 9.61682C23.6344 10.8326 24.0478 11.866 24.8745 12.717C25.7012 13.5681 26.7225 13.9936 27.9382 13.9936C29.154 13.9936 30.1874 13.5681 31.0384 12.717C31.8895 11.866 32.315 10.8326 32.315 9.61682C32.315 8.40106 31.8895 7.37982 31.0384 6.5531C30.1874 5.72638 29.154 5.31302 27.9382 5.31302C26.7225 5.31302 25.7012 5.72638 24.8745 6.5531C24.0478 7.37982 23.6344 8.40106 23.6344 9.61682ZM23.7074 19.3186C23.7074 18.3946 23.3791 17.6165 22.7226 16.9843C22.0661 16.3521 21.2758 16.036 20.3519 16.036C20.0115 16.036 19.7683 16.0604 19.6224 16.109L21.519 16.6926C22.1026 17.033 22.4916 17.5193 22.6861 18.1515C22.8807 18.7837 22.8077 19.3916 22.4673 19.9751C22.1269 20.5587 21.6406 20.9477 21.0084 21.1423C20.3762 21.3368 19.7683 21.2638 19.1847 20.9234L17.2152 20.2669C17.7015 21.8231 18.7471 22.6012 20.3519 22.6012C21.2758 22.6012 22.0661 22.2851 22.7226 21.6529C23.3791 21.0207 23.7074 20.2426 23.7074 19.3186Z" fill="white"/>
</g>
<defs>
<filter id="filter0_d_109_186" x="0" y="4" width="36.5551" height="22.8412" filterUnits="userSpaceOnUse" color-interpolation-filters="sRGB">
<feFlood flood-opacity="0" result="BackgroundImageFix"/>
<feColorMatrix in="SourceAlpha" type="matrix" values="0 0 0 0 0 0 0 0 0 0 0 0 0 0 0 0 0 0 127 0" result="hardAlpha"/>
<feOffset dx="2" dy="2"/>
<feGaussianBlur stdDeviation="0.5"/>
<feComposite in2="hardAlpha" operator="out"/>
<feColorMatrix type="matrix" values="0 0 0 0 0 0 0 0 0 0 0 0 0 0 0 0 0 0 0.25 0"/>
<feBlend mode="normal" in2="BackgroundImageFix" result="effect1_dropShadow_109_186"/>
<feBlend mode="normal" in="SourceGraphic" in2="effect1_dropShadow_109_186" result="shape"/>
</filter>
</defs>
</svg>
