<svg width="33" height="33" viewBox="0 0 33 33" fill="none" xmlns="http://www.w3.org/2000/svg">
<g filter="url(#filter0_d_0_65)">
<path d="M23.3899 23.3899C21.7936 23.3899 20.5138 24.6698 20.5138 26.2661C20.5138 27.0289 20.8168 27.7604 21.3562 28.2998C21.8956 28.8392 22.6271 29.1422 23.3899 29.1422C24.1527 29.1422 24.8843 28.8392 25.4237 28.2998C25.963 27.7604 26.2661 27.0289 26.2661 26.2661C26.2661 25.5033 25.963 24.7717 25.4237 24.2323C24.8843 23.6929 24.1527 23.3899 23.3899 23.3899ZM0.380737 0.380737V3.25688H3.25688L8.43395 14.1719L6.47817 17.6951C6.26246 18.0978 6.13303 18.5724 6.13303 19.0757C6.13303 19.8385 6.43605 20.5701 6.97543 21.1094C7.51482 21.6488 8.24638 21.9518 9.00918 21.9518H26.2661V19.0757H9.61317C9.51782 19.0757 9.42637 19.0378 9.35895 18.9704C9.29153 18.903 9.25365 18.8115 9.25365 18.7162C9.25365 18.6443 9.26803 18.5867 9.29679 18.5436L10.5911 16.1995H21.3047C22.3833 16.1995 23.3324 15.5956 23.8213 14.7183L28.9696 5.41399C29.0703 5.1839 29.1422 4.93943 29.1422 4.69496C29.1422 4.31356 28.9907 3.94778 28.721 3.67809C28.4513 3.4084 28.0855 3.25688 27.7041 3.25688H6.43503L5.08324 0.380737M9.00918 23.3899C7.41292 23.3899 6.13303 24.6698 6.13303 26.2661C6.13303 27.0289 6.43605 27.7604 6.97543 28.2998C7.51482 28.8392 8.24638 29.1422 9.00918 29.1422C9.77198 29.1422 10.5035 28.8392 11.0429 28.2998C11.5823 27.7604 11.8853 27.0289 11.8853 26.2661C11.8853 25.5033 11.5823 24.7717 11.0429 24.2323C10.5035 23.6929 9.77198 23.3899 9.00918 23.3899Z" fill="white"/>
</g>
<defs>
<filter id="filter0_d_0_65" x="0.380737" y="0.380737" width="31.7615" height="31.7615" filterUnits="userSpaceOnUse" color-interpolation-filters="sRGB">
<feFlood flood-opacity="0" result="BackgroundImageFix"/>
<feColorMatrix in="SourceAlpha" type="matrix" values="0 0 0 0 0 0 0 0 0 0 0 0 0 0 0 0 0 0 127 0" result="hardAlpha"/>
<feOffset dx="2" dy="2"/>
<feGaussianBlur stdDeviation="0.5"/>
<feComposite in2="hardAlpha" operator="out"/>
<feColorMatrix type="matrix" values="0 0 0 0 0 0 0 0 0 0 0 0 0 0 0 0 0 0 0.25 0"/>
<feBlend mode="normal" in2="BackgroundImageFix" result="effect1_dropShadow_0_65"/>
<feBlend mode="normal" in="SourceGraphic" in2="effect1_dropShadow_0_65" result="shape"/>
</filter>
</defs>
</svg>
